# xmcd
#
# Track frame offsets:
#	150
#	21423
#	46120
#	74188
#	99798
#	121735
#	143217
#
# Disc length: 2197 seconds
#
# Revision: 1
# Processed by: cddbd v1.5.2PL0 Copyright (c) Steve Scherf et al.
# Submitted via: audiograbber 1.83.01
#
DISCID=5c089307
DTITLE=Cornerstone - In Concert [CD 2)
DYEAR=2005
DGENRE=Blues
TTITLE0=Hour Of Doom
TTITLE1=Singing Alone
TTITLE2=Black Masquerade
TTITLE3=Scream
TTITLE4=Unchosen One
TTITLE5=I'm Alive
TTITLE6=Midnight In Tokyo
EXTD=
EXTT0=
EXTT1=
EXTT2=
EXTT3=
EXTT4=
EXTT5=
EXTT6=
PLAYORDER=
